<?xml version="1.0" encoding="UTF-8"?>
<svg width="32px" height="32px" viewBox="0 0 32 32" version="1.1" xmlns="http://www.w3.org/2000/svg" xmlns:xlink="http://www.w3.org/1999/xlink">
    <title>4F8D3B16-E80C-4BB0-BBAA-1CA5D08673AD@0,5x</title>
    <g id="desktop" stroke="none" stroke-width="1" fill="none" fill-rule="evenodd">
        <g id="1_comercio_tendering_" transform="translate(-1258.000000, -66.000000)">
            <rect fill="#FFFFFF" x="0" y="0" width="1440" height="4463"></rect>
            <g id="DK/01.-navigation/Menu-v3" transform="translate(0.000000, 38.000000)">
                <g id="General/icons/32px/ic_cart" transform="translate(1258.000000, 28.000000)">
                    <rect id="bg_32px" x="0" y="0" width="32" height="32"></rect>
                    <path d="M11.1000002,22.965332 C9.99126192,22.965332 9.09178454,23.8628723 9.08935298,24.9716024 C9.08694099,26.0803294 9.98246823,26.9817684 11.0911768,26.9866755 C12.1999204,26.9915041 13.1033279,26.0979639 13.1106558,24.9892682 C13.1135903,23.8736569 12.2155729,22.9697182 11.1000002,22.965332 Z M17.1639647,22.965332 C16.0552264,22.965332 15.1557491,23.8628723 15.1533175,24.9716024 C15.1509055,26.0803294 16.0464328,26.9817684 17.1551413,26.9866755 C18.263885,26.9915041 19.1672924,26.0979639 19.1746203,24.9892682 C19.1775548,23.8736569 18.2795374,22.9697182 17.1639647,22.965332 Z M9.99080453,20.0346667 C9.99080453,20.3560895 10.2119762,20.6287534 10.4661656,20.7011861 L10.5626669,20.7186667 L20.0520005,20.7186667 C20.6042853,20.7186667 21.0520005,21.1663819 21.0520005,21.7186667 C21.0520005,22.2249277 20.6757954,22.6433213 20.1876946,22.7095378 L20.0520005,22.7186667 L10.4938649,22.716297 C9.08444707,22.619096 7.99080453,21.4474322 7.99080453,20.0346667 C7.99080453,18.9728202 8.60861977,18.0471759 9.51397174,17.6115745 L8.995,9.333 L8.168,7 L7,7 C6.49373898,7 6.07534539,6.62379482 6.00912882,6.13569408 L6,6 C6,5.49373898 6.37620518,5.07534539 6.86430592,5.00912882 L7,5 L8.47888521,5.00007465 C8.91667961,5.00542427 9.33441372,5.18448482 9.64017598,5.49785876 C9.8585764,5.72169674 10.0070662,6.00096185 10.0721153,6.30181504 L10.0933333,6.44133333 L10.69,8.127 L23.701297,8.1258322 C25.5184787,8.1349183 26.3270091,8.4203641 26.6150116,9.80205 L26.6459604,9.96638692 C26.6945522,10.3629892 26.6460716,10.7654589 26.5198746,11.0960804 L26.5198746,11.0960804 L25.8197017,13.2326833 L24.5839048,16.4012371 C23.8524906,18.3217506 21.9359206,19.5241273 19.9747162,19.3506647 L19.9747162,19.3506647 L10.616,19.35 L10.5352376,19.3617404 C10.2221437,19.4282114 9.99080453,19.7059388 9.99080453,20.0346667 Z M11.048,10.1266667 L11.5013333,17.3493333 L20.0609351,17.3543885 C21.1458469,17.448278 22.1657544,16.8568377 22.6320074,15.8819744 L22.6320074,15.8819744 L22.7177311,15.6819789 L23.9375579,12.558582 L24.6551883,10.3609241 C24.6656503,10.3152764 24.6691843,10.2750194 24.667557,10.2557714 L24.667557,10.2557714 L24.6540259,10.2156548 C24.6467791,10.2037021 24.636046,10.1931308 24.6195771,10.1838264 L24.6195771,10.1838264 L24.5507133,10.1595999 L24.4339369,10.1422885 L24.1394105,10.1277856 L11.048,10.1266667 Z" id="Combined-Shape" fill="#000000"></path>
                </g>
            </g>
        </g>
    </g>
</svg>