<?xml version="1.0" encoding="UTF-8"?>
<svg width="24px" height="24px" viewBox="0 0 24 24" version="1.1" xmlns="http://www.w3.org/2000/svg" xmlns:xlink="http://www.w3.org/1999/xlink">
    <title>1B26ED44-68DC-4B8A-A923-A847238D750C</title>
    <g id="desktop" stroke="none" stroke-width="1" fill="none" fill-rule="evenodd">
        <g id="1_comercio_tendering_" transform="translate(-164.000000, -8.000000)" fill-rule="nonzero">
            <g id="brazil" transform="translate(164.000000, 8.000000)">
                <circle id="Oval" fill="#6DA544" cx="12" cy="12" r="12"></circle>
                <polygon id="Path" fill="#FFDA44" points="12 4.69565625 21.9130312 12 12 19.3043438 2.08696875 12"></polygon>
                <circle id="Oval" fill="#F0F0F0" cx="12" cy="12" r="4.17389063"></circle>
                <g id="Group" transform="translate(7.781250, 7.781250)" fill="#0052B4">
                    <path d="M2.13178125,3.95789063 C1.40596875,3.95789063 0.705515625,4.06828125 0.046171875,4.273125 C0.075375,6.553125 1.9318125,8.3926875 4.21875,8.3926875 C5.632875,8.3926875 6.8818125,7.68876563 7.63682813,6.6129375 C6.34509375,4.99589063 4.35754688,3.95789063 2.13178125,3.95789063 Z" id="Path"></path>
                    <path d="M8.31529687,5.0184375 C8.36554687,4.7595 8.3926875,4.49235937 8.3926875,4.21875 C8.3926875,1.91353125 6.52396875,0.044859375 4.21879687,0.044859375 C2.49876562,0.044859375 1.02220312,1.08553125 0.383203125,2.571375 C0.948046875,2.45432812 1.53285937,2.3926875 2.131875,2.3926875 C4.55610938,2.39264063 6.74920312,3.40035937 8.31529687,5.0184375 Z" id="Path"></path>
                </g>
            </g>
        </g>
    </g>
</svg>