<?xml version="1.0" encoding="UTF-8"?>
<svg width="32px" height="32px" viewBox="0 0 32 32" version="1.1" xmlns="http://www.w3.org/2000/svg" xmlns:xlink="http://www.w3.org/1999/xlink">
    <title>701FF493-1C4D-4411-95FE-256DDA8AD9D1@0,5x</title>
    <g id="desktop" stroke="none" stroke-width="1" fill="none" fill-rule="evenodd">
        <g id="1_comercio_tendering_" transform="translate(-1210.000000, -66.000000)">
            <rect fill="#FFFFFF" x="0" y="0" width="1440" height="4463"></rect>
            <g id="DK/01.-navigation/Menu-v3" transform="translate(0.000000, 38.000000)">
                <g id="General/icons/32px/ic_User-Logout" transform="translate(1210.000000, 28.000000)">
                    <rect id="bg_32px" x="0" y="0" width="32" height="32"></rect>
                    <path d="M23.7142858,6.25 C24.0282785,6.25 24.3049521,6.44486107 24.4146555,6.73158029 L24.4448614,6.83041423 L25.7394458,12.4127632 L25.7485213,12.4899941 L25.75,12.5388571 L25.75,25 C25.75,25.3796958 25.4678461,25.693491 25.1017706,25.7431534 L25,25.75 L7,25.75 C6.62030423,25.75 6.30650904,25.4678461 6.25684662,25.1017706 L6.25,25 L6.25158009,12.4884928 L6.26055416,12.4127632 L7.55513878,6.83041421 C7.62613704,6.52455372 7.87851125,6.2991066 8.18261016,6.25707578 L8.28571435,6.25 L23.7142858,6.25 Z M24.25,13.288 L16.75,13.288 L16.75,16 C16.75,16.4142136 16.4142136,16.75 16,16.75 C15.6203042,16.75 15.306509,16.4678461 15.2568466,16.1017706 L15.25,16 L15.25,13.288 L7.75,13.288 L7.75,24.25 L24.25,24.25 L24.25,13.288 Z M23.118,7.75 L16.75,7.75 L16.75,11.788 L24.055,11.788 L23.118,7.75 Z M15.25,7.75 L8.881,7.75 L7.944,11.788 L15.25,11.788 L15.25,7.75 Z" id="cart" fill="#000000"></path>
                </g>
            </g>
        </g>
    </g>
</svg>